<svg version="1.1" id="Layer_1" xmlns="http://www.w3.org/2000/svg" xmlns:xlink="http://www.w3.org/1999/xlink" x="0px" y="0px"
	 width="100%" viewBox="0 0 600 600" enable-background="new 0 0 600 600" xml:space="preserve">
<path fill="#000000" opacity="1.000000" stroke="none" 
	d="
M269.000000,601.000000 
	C179.333328,601.000000 90.166664,601.000000 1.000000,601.000000 
	C1.000000,401.000000 1.000000,201.000000 1.000000,1.000000 
	C201.000000,1.000000 401.000000,1.000000 601.000000,1.000000 
	C601.000000,201.000000 601.000000,401.000000 601.000000,601.000000 
	C490.500000,601.000000 380.000000,601.000000 269.000000,601.000000 
M156.495178,212.991806 
	C156.385284,213.309372 156.275391,213.626953 156.043610,214.881882 
	C156.043610,234.801453 156.043610,254.721039 156.043610,275.088318 
	C153.441864,275.088318 151.638931,275.088287 149.835999,275.088348 
	C136.009171,275.088776 122.180344,274.973022 108.357536,275.209229 
	C106.169609,275.246674 103.497688,276.338531 101.919632,277.850769 
	C92.660248,286.724091 83.649727,295.857544 74.585083,304.933044 
	C73.632278,305.886993 72.873856,307.035095 71.193527,309.130096 
	C100.221886,309.130096 127.916267,309.130096 156.164612,309.130096 
	C156.164612,332.176300 156.164612,354.581299 156.164612,377.114075 
	C169.304733,377.114075 181.876144,377.114075 194.999802,377.114075 
	C194.999802,374.794739 194.999802,372.838257 194.999802,370.881775 
	C194.999847,339.563141 195.020142,308.244507 194.992859,276.925903 
	C194.974579,255.938614 194.888794,234.951385 194.830200,213.425766 
	C194.543701,213.262726 194.257202,213.099670 193.054718,212.740921 
	C181.044220,212.806168 169.033722,212.871399 156.495178,212.991806 
M584.083557,343.851135 
	C547.839844,343.851135 511.596191,343.851135 474.848022,343.851135 
	C474.848022,299.695831 474.848022,256.449097 474.848022,212.956299 
	C461.763275,212.956299 449.190002,212.956299 436.000275,212.956299 
	C436.000275,215.203323 436.000275,217.151291 436.000275,219.099258 
	C436.000244,250.087845 435.980011,281.076447 436.007080,312.065002 
	C436.025696,333.387695 436.109863,354.710358 436.177826,376.607849 
	C436.479523,376.790405 436.781219,376.972961 437.988586,377.370514 
	C475.805481,377.401276 513.622375,377.433990 551.439270,377.449982 
	C552.262817,377.450317 553.086487,377.259430 554.622314,377.033722 
	C554.942078,376.680573 555.261780,376.327454 556.148743,375.740814 
	C566.349182,365.484161 576.549683,355.227478 586.721558,344.357880 
	C586.150635,344.245361 585.579712,344.132874 584.083557,343.851135 
M356.047241,212.739670 
	C320.017761,212.709595 283.988251,212.671051 247.958771,212.662354 
	C244.313614,212.661469 240.668411,212.840790 236.495178,212.991760 
	C236.385254,213.309341 236.275314,213.626907 236.043472,214.881866 
	C236.028961,247.645935 235.991501,280.410004 236.008240,313.174072 
	C236.018936,334.127106 236.109695,355.080109 236.177917,376.608032 
	C236.479736,376.790619 236.781540,376.973206 237.988937,377.370819 
	C277.145996,377.401550 316.303070,377.434174 355.460144,377.450256 
	C356.283936,377.450592 357.107819,377.260406 358.493286,377.135925 
	C358.634277,377.012543 358.775269,376.889130 359.758942,376.599396 
	C381.367462,374.746155 396.592194,362.528625 402.791321,344.469910 
	C406.474091,333.741516 406.523804,322.651947 403.066895,311.617218 
	C399.498596,300.227081 391.459778,293.123260 383.622284,289.428192 
	C385.911255,286.222748 388.475494,282.578735 391.094330,278.974365 
	C399.108185,267.944580 399.310089,255.542969 396.891663,242.955185 
	C393.239716,223.946945 375.450684,212.964767 358.162537,213.481461 
	C357.762451,213.299255 357.362366,213.117035 356.047241,212.739670 
M23.001089,331.500000 
	C23.001089,346.612030 23.001089,361.724060 23.001089,376.982422 
	C36.301540,376.982422 48.975319,376.982422 61.689972,376.982422 
	C61.689972,322.075470 61.689972,267.668396 61.689972,213.125198 
	C48.695961,213.125198 36.015896,213.125198 23.001089,213.125198 
	C23.001089,252.565582 23.001089,291.532776 23.001089,331.500000 
z"/>
<path fill="#00867D" opacity="1.000000" stroke="none" 
	d="
M237.023239,212.936493 
	C240.668411,212.840790 244.313614,212.661469 247.958771,212.662354 
	C283.988251,212.671051 320.017761,212.709595 356.782990,213.004105 
	C357.869751,213.522263 358.220734,213.775970 358.571747,214.029694 
	C375.450684,212.964767 393.239716,223.946945 396.891663,242.955185 
	C399.310089,255.542969 399.108185,267.944580 391.094330,278.974365 
	C388.475494,282.578735 385.911255,286.222748 383.622284,289.428192 
	C391.459778,293.123260 399.498596,300.227081 403.066895,311.617218 
	C406.523804,322.651947 406.474091,333.741516 402.791321,344.469910 
	C396.592194,362.528625 381.367462,374.746155 359.222748,376.750092 
	C358.445343,377.018829 358.193726,377.104919 357.931641,377.159088 
	C357.107819,377.260406 356.283936,377.450592 355.460144,377.450256 
	C316.303070,377.434174 277.145996,377.401550 237.381699,377.077087 
	C236.579178,376.526764 236.375885,376.276672 236.164581,376.033112 
	C236.109695,355.080109 236.018936,334.127106 236.008240,313.174072 
	C235.991501,280.410004 236.028961,247.645935 236.248016,214.245697 
	C236.635437,213.378983 236.825668,213.154633 237.023239,212.936493 
M296.004333,296.504333 
	C301.671021,290.862976 307.486725,285.360687 312.938049,279.518372 
	C315.457397,276.818329 318.134674,276.104156 321.683533,275.981873 
	C330.407501,275.681274 339.284485,275.693298 347.778900,273.984039 
	C356.862274,272.156250 359.453064,267.230621 358.997864,257.455261 
	C358.658356,250.164444 354.968262,246.156479 346.629639,244.323715 
	C344.070862,243.761322 341.416351,243.370499 338.803741,243.359619 
	C319.646881,243.279892 300.489563,243.316666 281.332367,243.316727 
	C279.387695,243.316727 277.443024,243.316742 275.346375,243.316742 
	C275.346375,278.432037 275.346375,312.811768 275.346375,348.275299 
	C300.104919,347.728943 324.560944,348.134857 348.848328,346.303955 
	C363.768860,345.179138 367.513275,332.994293 363.955017,320.734131 
	C361.794403,313.289551 353.966248,309.009430 344.148529,308.995300 
	C326.324036,308.969666 308.499481,308.994507 290.674957,308.976715 
	C288.920258,308.974945 287.165710,308.823181 283.868073,308.668823 
	C288.377594,304.148041 291.940735,300.575989 296.004333,296.504333 
z"/>
<path fill="#00867D" opacity="1.000000" stroke="none" 
	d="
M436.164734,376.033020 
	C436.109863,354.710358 436.025696,333.387695 436.007080,312.065002 
	C435.980011,281.076447 436.000244,250.087845 436.000275,219.099258 
	C436.000275,217.151291 436.000275,215.203323 436.000275,212.956299 
	C449.190002,212.956299 461.763275,212.956299 474.848022,212.956299 
	C474.848022,256.449097 474.848022,299.695831 474.848022,343.851135 
	C511.596191,343.851135 547.839844,343.851135 584.762939,344.056580 
	C585.878296,344.498322 586.314270,344.734558 586.750183,344.970825 
	C576.549683,355.227478 566.349182,365.484161 555.595459,376.067078 
	C554.664734,376.648132 554.287415,376.902954 553.910095,377.157776 
	C553.086487,377.259430 552.262817,377.450317 551.439270,377.449982 
	C513.622375,377.433990 475.805481,377.401276 437.381409,377.076813 
	C436.579010,376.526642 436.375824,376.276611 436.164734,376.033020 
z"/>
<path fill="#00867D" opacity="1.000000" stroke="none" 
	d="
M194.833221,213.964127 
	C194.888794,234.951385 194.974579,255.938614 194.992859,276.925903 
	C195.020142,308.244507 194.999847,339.563141 194.999802,370.881775 
	C194.999802,372.838257 194.999802,374.794739 194.999802,377.114075 
	C181.876144,377.114075 169.304733,377.114075 156.164612,377.114075 
	C156.164612,354.581299 156.164612,332.176300 156.164612,309.130096 
	C127.916267,309.130096 100.221886,309.130096 71.193527,309.130096 
	C72.873856,307.035095 73.632278,305.886993 74.585083,304.933044 
	C83.649727,295.857544 92.660248,286.724091 101.919632,277.850769 
	C103.497688,276.338531 106.169609,275.246674 108.357536,275.209229 
	C122.180344,274.973022 136.009171,275.088776 149.835999,275.088348 
	C151.638931,275.088287 153.441864,275.088318 156.043610,275.088318 
	C156.043610,254.721039 156.043610,234.801453 156.248108,214.245743 
	C156.635483,213.379074 156.825699,213.154755 157.023224,212.936630 
	C169.033722,212.871399 181.044220,212.806168 193.658722,213.008179 
	C194.447861,213.509155 194.638031,213.738708 194.833221,213.964127 
z"/>
<path fill="#00867D" opacity="1.000000" stroke="none" 
	d="
M23.001089,331.000000 
	C23.001089,291.532776 23.001089,252.565582 23.001089,213.125198 
	C36.015896,213.125198 48.695961,213.125198 61.689972,213.125198 
	C61.689972,267.668396 61.689972,322.075470 61.689972,376.982422 
	C48.975319,376.982422 36.301540,376.982422 23.001089,376.982422 
	C23.001089,361.724060 23.001089,346.612030 23.001089,331.000000 
z"/>
<path fill="#00958B" opacity="1.000000" stroke="none" 
	d="
M586.735840,344.664368 
	C586.314270,344.734558 585.878296,344.498322 585.225586,344.141205 
	C585.579712,344.132874 586.150635,344.245361 586.735840,344.664368 
z"/>
<path fill="#00958B" opacity="1.000000" stroke="none" 
	d="
M156.759201,212.964218 
	C156.825699,213.154755 156.635483,213.379074 156.309052,213.777069 
	C156.275391,213.626953 156.385284,213.309372 156.759201,212.964218 
z"/>
<path fill="#00958B" opacity="1.000000" stroke="none" 
	d="
M194.831711,213.694946 
	C194.638031,213.738708 194.447861,213.509155 194.116699,213.106033 
	C194.257202,213.099670 194.543701,213.262726 194.831711,213.694946 
z"/>
<path fill="#00958B" opacity="1.000000" stroke="none" 
	d="
M236.759216,212.964127 
	C236.825668,213.154633 236.635437,213.378983 236.308975,213.777008 
	C236.275314,213.626907 236.385254,213.309341 236.759216,212.964127 
z"/>
<path fill="#00958B" opacity="1.000000" stroke="none" 
	d="
M358.367126,213.755585 
	C358.220734,213.775970 357.869751,213.522263 357.240479,213.101685 
	C357.362366,213.117035 357.762451,213.299255 358.367126,213.755585 
z"/>
<path fill="#009389" opacity="1.000000" stroke="none" 
	d="
M236.171249,376.320557 
	C236.375885,376.276672 236.579178,376.526764 236.928894,376.969574 
	C236.781540,376.973206 236.479736,376.790619 236.171249,376.320557 
z"/>
<path fill="#009389" opacity="1.000000" stroke="none" 
	d="
M358.212463,377.147522 
	C358.193726,377.104919 358.445343,377.018829 358.801422,376.833252 
	C358.775269,376.889130 358.634277,377.012543 358.212463,377.147522 
z"/>
<path fill="#009389" opacity="1.000000" stroke="none" 
	d="
M436.171265,376.320435 
	C436.375824,376.276611 436.579010,376.526642 436.928589,376.969299 
	C436.781219,376.972961 436.479523,376.790405 436.171265,376.320435 
z"/>
<path fill="#009389" opacity="1.000000" stroke="none" 
	d="
M554.266235,377.095734 
	C554.287415,376.902954 554.664734,376.648132 555.311829,376.183838 
	C555.261780,376.327454 554.942078,376.680573 554.266235,377.095734 
z"/>
<path fill="#000101" opacity="1.000000" stroke="none" 
	d="
M295.754089,296.754150 
	C291.940735,300.575989 288.377594,304.148041 283.868073,308.668823 
	C287.165710,308.823181 288.920258,308.974945 290.674957,308.976715 
	C308.499481,308.994507 326.324036,308.969666 344.148529,308.995300 
	C353.966248,309.009430 361.794403,313.289551 363.955017,320.734131 
	C367.513275,332.994293 363.768860,345.179138 348.848328,346.303955 
	C324.560944,348.134857 300.104919,347.728943 275.346375,348.275299 
	C275.346375,312.811768 275.346375,278.432037 275.346375,243.316742 
	C277.443024,243.316742 279.387695,243.316727 281.332367,243.316727 
	C300.489563,243.316666 319.646881,243.279892 338.803741,243.359619 
	C341.416351,243.370499 344.070862,243.761322 346.629639,244.323715 
	C354.968262,246.156479 358.658356,250.164444 358.997864,257.455261 
	C359.453064,267.230621 356.862274,272.156250 347.778900,273.984039 
	C339.284485,275.693298 330.407501,275.681274 321.683533,275.981873 
	C318.134674,276.104156 315.457397,276.818329 312.938049,279.518372 
	C307.486725,285.360687 301.671021,290.862976 295.754089,296.754150 
z"/>
</svg>